# xmcd CD database file
#
# Track frame offsets:
#	182
#	28905
#	52885
#	71732
#	87477
#	111930
#	144162
#
# Disc length: 2445 seconds
#
# Revision: 0
# Processed by: cddbd v1.4PL0 Copyright (c) Steve Scherf et al.
# Submitted via: CDex 1.50Beta7
#
DISCID=5e098b07
DTITLE=Tadeusz Nalepa - Live 1986
DYEAR=1993
DGENRE=Blues
TTITLE0=Rzeka dziecinstwa
TTITLE1=Co sie stalo kwiatom
TTITLE2=Zasady gry
TTITLE3=Nauczylem sie niewiary
TTITLE4=Jest gdzies taki dom
TTITLE5=Kiedy bylem malym chlopcem
TTITLE6=Modlitwa
EXTD=YEAR: 1993
EXTT0=
EXTT1=
EXTT2=
EXTT3=
EXTT4=
EXTT5=
EXTT6=
PLAYORDER=
